<svg width="80" height="80" viewBox="0 0 80 80" fill="none" xmlns="http://www.w3.org/2000/svg">
<path fill-rule="evenodd" clip-rule="evenodd" d="M79.1101 39.5393C79.1101 60.9213 61.7766 78.2549 40.3945 78.2549C19.0125 78.2549 1.67896 60.9213 1.67896 39.5393C1.67896 18.1573 19.0125 0.823736 40.3945 0.823736C61.7766 0.823736 79.1101 18.1573 79.1101 39.5393ZM79.9338 39.5393C79.9338 61.3763 62.2315 79.0786 40.3945 79.0786C18.5576 79.0786 0.855225 61.3763 0.855225 39.5393C0.855225 17.7024 18.5576 0 40.3945 0C62.2315 0 79.9338 17.7024 79.9338 39.5393ZM39.0857 24.6282C37.2402 26.4574 35.6151 27.5244 35.3973 27.653L34.651 28.0386C34.2011 28.2957 33.5561 28.5433 31.833 29.0019C27.6716 29.9786 25.4955 27.7914 24.7915 26.0412C24.519 25.4661 24.3768 25.1266 24.1749 24.4409L24.1568 24.3136L23.8137 21.8955C23.67 20.577 23.6901 19.9722 23.7892 18.9778C24.2347 17.6748 24.5907 16.9969 25.4282 15.8889C26.4521 14.7034 27.108 14.0613 28.5213 12.9833C29.6516 12.2185 30.3851 11.7907 32.2043 11.0324C33.6738 10.6498 35.4191 10.3562 35.9317 10.3088C37.816 10.1345 38.9562 10.2584 41.1579 10.541C42.869 10.8256 43.8215 11.139 45.4269 11.6672L45.7469 11.7724L48.8722 13.2115L51.9972 15.105L53.1327 15.7877C53.3753 15.8821 53.5954 15.971 53.803 16.0547L53.8031 16.0547L53.8035 16.0549L53.8035 16.0549C54.5682 16.3634 55.161 16.6026 56.0676 16.7992C57.1518 16.9275 57.9208 16.7546 58.4402 16.5925C58.5359 16.5659 59.0543 16.3644 59.2773 15.6298C59.4052 14.7882 58.9294 14.2149 58.4698 14.0565C57.8791 13.8318 57.3823 13.8459 56.6975 13.9185L56.6746 13.9206C56.4189 13.9446 55.7021 14.0117 54.543 14.2892C54.2336 14.3633 53.7716 14.5075 53.4097 14.6266L54.4847 15.105L54.5821 15.0691C54.9743 14.9245 55.3157 14.7986 55.8243 14.6266L56.888 14.3459C57.3655 14.2921 57.6054 14.2896 57.9878 14.3196C58.4713 14.4695 58.5942 14.6405 58.7326 14.9931C58.7751 15.3915 58.7218 15.5989 58.4771 15.938C58.0214 16.1136 57.7573 16.1602 57.2771 16.1732C57.1834 16.1609 57.0974 16.1502 57.0171 16.1403C56.6029 16.0891 56.34 16.0566 55.9412 15.9083C55.1848 15.6797 54.7711 15.5328 54.0331 15.2703L52.9882 14.7694C52.3179 14.4654 51.4293 13.8126 50.8978 13.4221C50.8242 13.368 50.7575 13.319 50.6991 13.2766C49.7951 12.7284 49.1701 12.2651 48.4291 11.7158C48.0735 11.4522 47.6911 11.1687 47.2384 10.8466C45.7086 9.74225 44.8238 9.17306 43.1232 8.37948C41.5372 7.77958 40.6093 7.54975 38.8885 7.35748C37.0769 7.4298 36.0803 7.53712 34.3614 7.93494C32.62 8.50563 31.6631 8.87215 30.0876 9.83969C28.8645 10.7129 27.3315 12.076 27.4133 12.0368C27.4308 12.0284 27.3856 12.0762 27.2918 12.1754C26.9481 12.539 25.9509 13.5937 24.9926 15.1067C23.7979 16.993 23.2712 18.935 23.2156 19.9679C23.1943 21.2865 23.2146 22.0225 23.367 23.322C23.4401 23.7458 23.4875 23.9791 23.5841 24.3949C23.7958 25.202 23.9584 25.6155 24.3095 26.3043C24.428 26.4974 24.5301 26.6704 24.6251 26.8314C24.8929 27.2855 25.1045 27.6442 25.4713 28.087C26.0443 28.6371 26.3905 28.892 27.0608 29.2246C27.9675 29.5634 28.4831 29.7122 29.4235 29.8631C30.5376 29.768 31.1519 29.6844 32.2234 29.4658C33.3429 29.1995 34.1464 28.9878 35.1875 28.396C35.2754 28.4052 36.2607 27.7244 37.6434 26.4896C38.6118 25.6248 38.8027 25.4091 38.9863 25.2015C39.0649 25.1127 39.1422 25.0254 39.2786 24.8893L39.0857 24.6282ZM47.5312 18.4002C45.9096 20.0916 45.1011 21.0153 43.8095 22.8233C42.7162 24.4692 42.2205 25.424 41.5058 27.1749C40.4973 29.7157 40.0103 31.1244 39.5547 33.5538L38.2588 39.0608C38.2146 39.3243 38.061 39.8084 37.7804 40.5124L41.5058 42.1171C41.7036 41.825 41.909 41.513 42.1289 41.1732C43.6026 38.5443 44.2766 36.9393 45.0263 33.6861C45.0755 33.2851 45.1959 32.6817 45.3378 31.9706L45.3378 31.9703L45.3379 31.9697L45.338 31.9696L45.338 31.9695C45.6011 30.6505 45.9381 28.9615 46.032 27.5064C46.1782 25.2408 47.9722 20.8112 49.1668 18.947C50.3657 17.7617 51.1812 17.0767 52.8399 15.9799L51.683 15.3061C50.0713 16.344 49.1148 17.0673 47.5312 18.4002ZM26.3584 51.2657C27.8265 50.9797 28.6192 50.7624 29.8952 50.1147C31.3904 49.4708 34.2163 47.2877 35.7667 44.7608L38.2588 45.9454C37.3286 46.7783 35.4101 48.3916 33.9317 49.2822C32.3529 50.2333 31.3643 50.5554 31.0673 50.5975C29.9124 51.0134 29.2727 51.1941 28.1397 51.4673C27.3328 51.6711 26.875 51.7515 26.0488 51.8289C25.9408 51.8403 25.8404 51.852 25.7447 51.863C25.2495 51.9204 24.8808 51.9631 24.2399 51.8908C24.1468 51.8774 24.0573 51.8647 23.9708 51.8525L23.9691 51.8523C23.0232 51.7184 22.4449 51.6365 21.5501 51.2337C21.1412 51.0969 20.9722 51.0215 20.6506 50.8421C20.0327 50.6051 18.4799 49.8385 16.363 48.0749C15.295 47.1359 14.889 46.5315 14.8195 46.3466L14.8116 46.332C14.5114 45.7768 13.6835 44.2457 13.0781 42.3092C12.7209 41.1666 12.6842 40.606 12.6634 40.2874C12.654 40.1435 12.6478 40.049 12.6167 39.9726C12.5215 39.0968 12.4924 38.673 12.4641 37.9819C12.4754 37.3159 12.4914 36.9302 12.5931 36.1461C12.7218 35.3355 12.8077 34.8805 13.0768 34.0651C13.2128 33.5785 13.3059 33.2778 13.7875 32.2115C14.1673 31.4095 14.4011 30.9186 14.9346 30.231C15.3333 29.62 15.6247 29.3011 16.0678 28.8163L16.0678 28.8163C16.1459 28.7308 16.2288 28.6401 16.3178 28.5418C16.9373 27.9568 17.2605 27.6603 17.7552 27.2344C18.4362 26.6517 18.8748 26.3394 19.6693 25.7736L19.7471 25.7182L21.6205 24.7383C22.2528 24.4158 22.6412 24.2577 23.2106 24.0932L23.253 24.0811L23.367 24.4501C23.201 24.4965 23.0549 24.5484 22.8386 24.6305C21.7136 25.2067 21.0956 25.5527 20.0103 26.2003C19.061 26.7447 18.5796 27.1082 17.7728 27.8161C17.6358 27.9535 17.5059 28.082 17.3818 28.2049L17.3816 28.2051C16.6737 28.9059 16.1514 29.4232 15.5344 30.3409C14.6678 31.5749 14.3018 32.3157 13.8043 33.7023C13.2192 35.217 13.0679 36.0982 13.0097 37.71C13.0103 39.1396 13.4213 42.2851 14.0584 43.7281C14.69 45.1587 15.2941 45.9534 15.5194 46.2473C16.1946 47.1279 16.6776 47.5741 17.351 48.1961C17.4475 48.2853 17.5479 48.378 17.6534 48.4762C18.6887 49.1793 19.2738 49.5663 20.415 50.0967C21.6703 50.6268 22.3867 50.8873 23.6952 51.2541C24.7504 51.411 25.3337 51.4186 26.3584 51.2657ZM36.1493 30.1421C36.1493 30.1421 36.566 31.7059 36.6838 32.0787C36.8016 32.4514 36.8739 32.9605 36.8739 32.9605C36.9978 33.2242 36.955 34.2027 36.4891 36.196C36.2489 37.2235 35.8711 38.2575 35.486 39.1133L35.9364 39.479C35.9669 39.5401 35.9979 39.4465 36.1006 39.1357C36.2015 38.8304 36.3717 38.3157 36.6787 37.5323C37.0107 36.6851 37.0901 36.2749 37.1368 36.0336C37.1596 35.9157 37.1746 35.838 37.2075 35.7695C37.3077 35.5605 37.4908 34.1064 37.4908 34.1064L37.4741 32.6157C37.5175 32.6371 37.5133 32.4355 37.1211 31.0429C36.854 30.0949 36.3341 29.0364 35.9271 28.396L35.3973 28.6717C35.6896 29.0785 35.8133 29.3673 35.9726 29.7394C36.0252 29.8622 36.0817 29.994 36.1493 30.1421ZM30.2475 44.5112L30.2477 44.5112C30.737 44.3124 31.1265 44.1541 31.6555 43.7629C32.0625 43.573 32.4643 43.2095 32.761 42.9103L33.1598 43.271C32.8825 43.5183 32.6198 43.7228 32.2097 44.0088L30.6545 44.9436C29.8997 45.3159 29.4647 45.4603 28.6814 45.6779C27.9209 45.8554 27.4917 45.9361 26.7178 46.0215C25.9256 46.0645 25.5781 46.0215 25.0728 45.8654C24.465 45.6739 24.1338 45.5335 23.5554 45.2368L22.2565 44.3176L21.4396 43.1352L20.8505 41.2713L20.6888 39.217C20.7049 38.3515 20.845 37.855 21.0999 37.0813C21.3865 36.3707 21.5904 35.9399 22.1107 35.0554C22.6805 34.3393 23.017 33.9468 23.6758 33.2753C24.6596 32.4501 25.256 32.0946 26.3497 31.5327C26.358 31.5446 26.3741 31.5581 26.3929 31.5738C26.4581 31.6283 26.5547 31.7089 26.4585 31.8418C26.3091 32.0481 25.7862 32.3674 25.1578 32.7404C24.417 33.2856 24.2341 33.4888 24.1388 33.5946C24.1077 33.6291 24.0859 33.6533 24.0571 33.6756C23.5032 34.1054 23.2163 34.463 22.5377 35.3194L21.8089 37.0457C21.571 37.7341 21.5185 38.0708 21.4529 38.6541C21.3841 39.518 21.3864 39.9206 21.4056 40.6083C21.467 41.4902 21.6418 41.9623 22.0398 42.7904C22.1969 43.212 22.8026 44.3802 23.8285 44.8735C24.5463 45.2583 25.0005 45.3179 25.3767 45.3673L25.3767 45.3673L25.3768 45.3674C25.5231 45.3866 25.6576 45.4042 25.7912 45.4389C26.3806 45.5918 26.6981 45.5323 27.0991 45.4572C27.2484 45.4292 27.4093 45.3991 27.6001 45.377C28.5168 45.1923 28.9642 45.0563 29.6549 44.7608C29.8732 44.6634 30.0662 44.5849 30.2458 44.5119L30.2461 44.5118L30.2463 44.5117L30.247 44.5114L30.2475 44.5112ZM27.7018 24.1351C28.6995 24.1957 29.2445 24.2879 30.1737 24.6282C30.9832 24.8358 31.4449 25.0658 32.1444 25.55L32.53 25.1616L31.6007 24.6205C31.2585 24.4818 31.0567 24.4007 30.6376 24.2378C30.48 24.19 30.3377 24.142 30.1948 24.0937L30.1946 24.0936C29.8281 23.9698 29.4569 23.8444 28.8111 23.718L28.7116 23.7056L28.6148 23.6935L28.529 23.6827L28.529 23.6827C27.8476 23.5966 27.371 23.5363 26.5844 23.5796C26.1323 23.6044 24.7548 23.6836 24.3675 23.7967L24.4318 24.3108C25.6471 24.1356 27.085 24.0741 27.7018 24.1351ZM55.7966 23.9401V37.1158L55.708 37.0976C55.1601 36.9857 54.8268 36.9176 54.704 36.3446L53.0972 30.3673C52.9826 30.136 52.8824 29.9309 52.7922 29.7461C52.0106 28.1461 51.9736 28.0705 49.8193 25.7397C49.5445 25.5307 49.3264 25.3557 49.1411 25.2071L49.141 25.207L49.1409 25.207C48.4444 24.6483 48.2129 24.4626 47.1842 24.2466C47.1842 24.2466 47.0269 24.5494 47.6341 23.2826C48.848 23.6437 49.3268 23.8719 49.8136 24.104C50.1895 24.2832 50.5701 24.4647 51.2976 24.7113C51.4052 24.7478 51.5224 24.7969 51.6468 24.8489C52.0794 25.0298 52.598 25.2467 53.0972 25.0969C53.7399 24.9041 55.2172 23.8901 55.2824 23.7472L55.7966 23.9401ZM40.6926 22.5905C41.1118 22.5579 41.4259 22.5221 41.6981 22.4911C42.3167 22.4207 42.7192 22.3748 43.6491 22.4472C43.6226 22.6784 43.2871 23.0645 43.0349 23.3548L43.0349 23.3548L43.0346 23.3551C42.9442 23.4592 42.8645 23.551 42.8136 23.6188C42.5863 23.5886 42.5753 23.5926 42.55 23.6018C42.5307 23.6088 42.503 23.6188 42.3637 23.6188C41.2325 23.6188 40.1142 23.8116 39.7286 23.9402C38.618 24.2029 38.0478 24.4893 37.1889 24.9207C37.0769 24.9769 36.96 25.0356 36.8363 25.0971C35.5077 25.9575 35.0349 26.415 34.3297 27.218C34.0624 27.5318 33.8462 27.8004 33.6675 28.0388C31.4596 28.6489 30.6725 28.7613 29.9621 28.6172C31.0185 27.1454 31.4342 26.6043 32.9158 25.4184C33.1032 25.2959 33.2796 25.1786 33.4488 25.066L33.4493 25.0657L33.4498 25.0654C34.5298 24.3471 35.3184 23.8226 36.8363 23.3617C37.9238 22.9797 38.6805 22.8746 39.7507 22.7259C40.0379 22.6859 40.3478 22.6429 40.6926 22.5905ZM28.7381 36.2804C28.4972 35.0126 28.5282 34.2037 28.6096 32.7454C28.7129 31.8554 28.8378 31.1954 29.1237 30.397C30.3267 30.4559 31.0674 30.4041 32.5944 30.046C32.1101 31.8585 32.1223 32.539 32.1437 33.7272L32.1445 33.7738C32.4851 36.1965 32.9079 36.9855 33.8156 38.0157C35.1468 39.4648 35.9112 40.0198 37.2862 40.8436C38.9994 41.7241 39.9078 42.148 41.3353 42.6432L45.5773 44.25L49.2408 45.7926C50.2109 46.2058 50.8067 46.5796 51.5788 47.0642C51.8075 47.2077 52.0518 47.361 52.3258 47.5279C53.9651 48.7087 55.5689 50.5142 57.1462 54.0836C57.77 55.7565 57.7815 56.8521 57.7887 57.5394V57.5394L57.7889 57.5543C57.811 59.2429 57.6622 60.1864 57.1462 61.8605C56.6395 63.1306 56.2574 63.7484 55.4751 64.7527C54.7942 65.7091 54.3607 66.2152 53.4827 67.0665C52.5131 67.9961 49.4448 69.5777 46.0272 70.023C45.6385 70.0874 45.2882 70.1491 44.965 70.2061L44.96 70.207L44.9559 70.2077L44.955 70.2078C42.7202 70.6019 41.7799 70.7677 38.3788 70.023C36.0645 69.5162 34.5573 68.7161 33.5211 68.166C32.9655 67.871 32.5453 67.648 32.2088 67.5807L31.0519 67.3236C30.0905 67.3725 29.8478 67.496 29.5736 67.7735L28.1596 69.5731C28.1596 68.9336 28.1509 68.4949 28.1431 68.1025V68.1024V68.1024C28.1297 67.43 28.1191 66.8937 28.1596 65.7168V55.1614H28.9952C29.9707 58.5918 30.5758 60.4066 31.8874 63.2102C32.139 63.7481 33.2231 65.3994 33.8156 65.7168C34.0899 65.9262 34.3369 66.1201 34.5664 66.3001C35.5221 67.0499 36.1732 67.5607 37.222 67.9663C39.1635 68.8404 40.4194 68.9564 42.6851 69.0589C45.007 68.8477 46.2212 68.6692 48.0196 68.0948C50.2727 67.2223 51.374 66.5446 52.84 64.7527C54.0143 63.9209 54.4787 58.5299 53.9969 56.8473C53.8785 56.434 53.8058 56.1348 53.7466 55.891L53.7465 55.8908C53.5646 55.1421 53.5094 54.9147 52.6472 53.5052C51.9516 52.4188 49.4679 49.6619 46.0272 48.2349C44.5617 47.6271 43.552 47.2607 42.7409 46.9664L42.7407 46.9663L42.7406 46.9663L42.7406 46.9663C42.2114 46.7743 41.7667 46.6129 41.3353 46.4353L36.7078 44.5071C34.8814 43.6382 33.9709 43.1353 32.5944 42.1933C31.4144 41.2553 30.8087 40.6231 29.8307 39.3012C29.1357 38.0394 28.9927 37.4487 28.7381 36.2804Z" fill="#725C4B"/>
</svg>
