<svg width="33" height="34" viewBox="0 0 33 34" fill="none" xmlns="http://www.w3.org/2000/svg">
<circle cx="16.5" cy="17.3711" r="16.5" fill="#725C4B"/>
<path d="M16.5 20.4667C18.433 20.4667 20 18.8475 20 16.8501C20 14.8526 18.433 13.2334 16.5 13.2334C14.567 13.2334 13 14.8526 13 16.8501C13 18.8475 14.567 20.4667 16.5 20.4667Z" stroke="white" stroke-width="1.5" stroke-linecap="round" stroke-linejoin="round"/>
<path d="M8.625 20.4666V13.2332C8.625 10.7365 10.5838 8.7124 13 8.7124H20C22.4162 8.7124 24.375 10.7365 24.375 13.2332V20.4666C24.375 22.9633 22.4162 24.9874 20 24.9874H13C10.5838 24.9874 8.625 22.9633 8.625 20.4666Z" stroke="white" stroke-width="1.5"/>
<path d="M21.3125 11.8871L21.3225 11.876" stroke="white" stroke-width="1.5" stroke-linecap="round" stroke-linejoin="round"/>
</svg>
