<svg width="95" height="12" viewBox="0 0 95 12" fill="none" xmlns="http://www.w3.org/2000/svg">
<path d="M6.65171 7.05863C6.65171 6.51985 6.52494 6.13425 6.27139 5.90184C6.02841 5.65886 5.63225 5.53737 5.08291 5.53737C4.53356 5.53737 3.98421 5.60604 3.43487 5.74337V10.8459L4.68674 11.353L4.59166 11.7017H1.04205L0.946967 11.353L1.66006 11.052C1.85022 10.978 1.97699 10.8988 2.04038 10.8143C2.11433 10.7297 2.1513 10.6083 2.1513 10.4498V5.71168L1.04205 5.53737L0.946967 5.18874L2.99117 4.44396L3.3081 4.57073L3.33979 5.01443L3.40318 5.04613C4.13212 4.64468 4.88218 4.44396 5.65338 4.44396C7.17465 4.44396 7.93528 5.25213 7.93528 6.86847V10.8459L9.18715 11.353L9.09207 11.7017H5.54245L5.44738 11.353L6.16047 11.052C6.35063 10.978 6.4774 10.8988 6.54078 10.8143C6.61474 10.7297 6.65171 10.6083 6.65171 10.4498V7.05863ZM13.2736 9.59407C13.2736 10.0378 13.3951 10.3494 13.638 10.529C13.881 10.7086 14.161 10.7984 14.4779 10.7984C14.8054 10.7984 15.2385 10.7086 15.7773 10.529L15.809 8.69082C14.4568 8.76477 13.6169 8.99719 13.2894 9.38807C13.2789 9.44089 13.2736 9.50956 13.2736 9.59407ZM15.7932 11.2263C15.1065 11.6277 14.4779 11.8284 13.9074 11.8284C13.337 11.8284 12.8827 11.6488 12.5446 11.2897C12.2171 10.9199 12.0534 10.4551 12.0534 9.89516C12.0534 9.32468 12.3281 8.88626 12.8774 8.5799C13.4373 8.27353 14.4145 8.07809 15.809 7.99358L15.8249 6.96355C15.8354 6.48816 15.7192 6.10784 15.4762 5.8226C15.2438 5.5268 14.9216 5.3789 14.5096 5.3789C14.0976 5.3789 13.7384 5.42644 13.432 5.52152L13.3053 6.72586L12.9249 6.83678L12.0534 5.60075C12.2858 5.33664 12.6344 5.07782 13.0993 4.82427C13.5641 4.57073 14.1187 4.44396 14.7631 4.44396C16.3372 4.44396 17.1243 5.40003 17.1243 7.31218L17.045 10.8459L18.1384 11.2263L18.0434 11.5749L16.6964 11.8284L16.3795 11.7017L15.8724 11.258L15.7932 11.2263ZM22.0789 10.4498V5.71168L20.9697 5.53737L20.8746 5.18874L23.0455 4.44396L23.3625 4.57073V10.8459L24.6143 11.353L24.5193 11.7017H20.9697L20.8746 11.353L21.5877 11.052C21.7778 10.978 21.9046 10.8988 21.968 10.8143C22.0419 10.7297 22.0789 10.6083 22.0789 10.4498ZM22.6335 2.79592C22.3906 2.79592 22.1845 2.71669 22.0155 2.55822C21.8571 2.38919 21.7778 2.18319 21.7778 1.94021C21.7778 1.68667 21.8571 1.47538 22.0155 1.30635C22.1845 1.13732 22.3906 1.0528 22.6335 1.0528C22.8871 1.0528 23.0984 1.13732 23.2674 1.30635C23.4364 1.47538 23.5209 1.68667 23.5209 1.94021C23.5209 2.18319 23.4364 2.38919 23.2674 2.55822C23.0984 2.71669 22.8871 2.79592 22.6335 2.79592ZM28.441 10.4498V2.06698L27.3318 1.89267L27.2367 1.54405L29.4077 0.799261L29.7246 0.926033V10.8459L30.9765 11.353L30.8814 11.7017H27.3318L27.2367 11.353L27.9498 11.052C28.1399 10.978 28.2667 10.8988 28.3301 10.8143C28.4041 10.7297 28.441 10.6083 28.441 10.4498ZM49.6511 7.05863C49.6511 6.51985 49.5243 6.13425 49.2708 5.90184C49.0278 5.65886 48.6264 5.53737 48.0664 5.53737C47.5065 5.53737 46.9096 5.62188 46.2758 5.79091C46.3814 6.13953 46.4343 6.49872 46.4343 6.86847V10.8459L47.6861 11.353L47.591 11.7017H44.0414L43.9463 11.353L44.6594 11.052C44.8496 10.978 44.9764 10.8988 45.0398 10.8143C45.1137 10.7297 45.1507 10.6083 45.1507 10.4498V7.05863C45.1507 6.51985 45.0239 6.13425 44.7704 5.90184C44.5274 5.65886 44.1312 5.53737 43.5819 5.53737C43.0325 5.53737 42.4832 5.60604 41.9338 5.74337V10.8459L43.1857 11.353L43.0906 11.7017H39.541L39.4459 11.353L40.159 11.052C40.3492 10.978 40.476 10.8988 40.5393 10.8143C40.6133 10.7297 40.6503 10.6083 40.6503 10.4498V5.71168L39.541 5.53737L39.4459 5.18874L41.4901 4.44396L41.8071 4.57073L41.8388 5.01443L41.9021 5.04613C42.6311 4.64468 43.3917 4.44396 44.184 4.44396C44.9764 4.44396 45.5627 4.68166 45.943 5.15705C46.8727 4.68166 47.7548 4.44396 48.5894 4.44396C50.1529 4.44396 50.9347 5.25213 50.9347 6.86847V10.8459L52.1865 11.353L52.0915 11.7017H48.5418L48.4468 11.353L49.1599 11.052C49.35 10.978 49.4768 10.8988 49.5402 10.8143C49.6141 10.7297 49.6511 10.6083 49.6511 10.4498V7.05863ZM56.2758 9.59407C56.2758 10.0378 56.3973 10.3494 56.6403 10.529C56.8832 10.7086 57.1632 10.7984 57.4801 10.7984C57.8076 10.7984 58.2408 10.7086 58.7795 10.529L58.8112 8.69082C57.459 8.76477 56.6191 8.99719 56.2916 9.38807C56.2811 9.44089 56.2758 9.50956 56.2758 9.59407ZM58.7954 11.2263C58.1087 11.6277 57.4801 11.8284 56.9097 11.8284C56.3392 11.8284 55.8849 11.6488 55.5469 11.2897C55.2194 10.9199 55.0556 10.4551 55.0556 9.89516C55.0556 9.32468 55.3303 8.88626 55.8796 8.5799C56.4395 8.27353 57.4167 8.07809 58.8112 7.99358L58.8271 6.96355C58.8377 6.48816 58.7214 6.10784 58.4785 5.8226C58.246 5.5268 57.9238 5.3789 57.5118 5.3789C57.0998 5.3789 56.7406 5.42644 56.4343 5.52152L56.3075 6.72586L55.9272 6.83678L55.0556 5.60075C55.288 5.33664 55.6367 5.07782 56.1015 4.82427C56.5663 4.57073 57.1209 4.44396 57.7654 4.44396C59.3395 4.44396 60.1265 5.40003 60.1265 7.31218L60.0473 10.8459L61.1407 11.2263L61.0456 11.5749L59.6986 11.8284L59.3817 11.7017L58.8746 11.258L58.7954 11.2263ZM67.7275 5.45813C67.4845 5.35249 67.1095 5.29967 66.6024 5.29967C66.1059 5.29967 65.7308 5.42644 65.4773 5.67999C65.3822 5.82789 65.3347 6.0022 65.3347 6.20292C65.3347 6.64662 65.6041 6.96884 66.1429 7.16956L67.7592 7.74003C68.2135 7.8985 68.5779 8.15732 68.8526 8.51651C69.1273 8.86513 69.2646 9.27714 69.2646 9.75254C69.2646 10.4181 69.0111 10.9305 68.504 11.2897C67.9969 11.6488 67.4 11.8284 66.7133 11.8284C66.0372 11.8284 65.4667 11.7175 65.0019 11.4957C64.5476 11.2632 64.2149 11.0203 64.0036 10.7667L64.8117 9.45146L65.2079 9.56238L65.2713 10.6241C65.641 10.8354 66.1112 10.941 66.6816 10.941C67.643 10.941 68.1237 10.6135 68.1237 9.95854C68.1237 9.69444 68.0391 9.48315 67.8701 9.32468C67.7011 9.16622 67.4264 9.0236 67.0461 8.89683L65.5882 8.42143C65.1551 8.27353 64.8223 8.03055 64.5899 7.69249C64.3575 7.35443 64.2413 6.97412 64.2413 6.55154C64.2413 5.88599 64.5054 5.36834 65.0336 4.99859C65.5618 4.62883 66.1745 4.44396 66.8718 4.44396C67.2944 4.44396 67.6905 4.52847 68.0603 4.6975C68.5779 4.91935 68.9266 5.16762 69.1061 5.44229L68.2346 6.67832L67.8543 6.56739L67.7275 5.45813ZM73.4381 10.2913V5.33136H72.3288L72.2337 4.98274L73.4381 4.44396L74.1353 2.97023L74.7216 3.08116V4.57073H76.6074L76.7817 4.76089L76.6232 5.36306L74.7216 5.29967V9.92685C74.7216 10.3177 74.8009 10.6083 74.9593 10.7984C75.1178 10.978 75.3977 11.0678 75.7992 11.0678H76.7024L76.7817 11.5115C76.1161 11.7228 75.5298 11.8284 75.0227 11.8284C74.5156 11.8284 74.1247 11.6858 73.8501 11.4006C73.5754 11.1153 73.4381 10.7456 73.4381 10.2913ZM79.7242 8.1362C79.7242 6.97412 80.057 6.07087 80.7225 5.42644C81.3881 4.77145 82.1645 4.44396 83.0519 4.44396C83.9393 4.44396 84.6102 4.70807 85.0645 5.23628C85.5187 5.75394 85.7459 6.46703 85.7459 7.37556V7.8985L85.5082 8.1362H81.0711C81.0923 8.94965 81.3194 9.59936 81.7525 10.0853C82.1857 10.5713 82.7403 10.8143 83.4164 10.8143C84.1031 10.8143 84.7581 10.6769 85.3814 10.4022L85.6032 10.8143C85.4765 10.941 85.3233 11.0731 85.1437 11.2104C84.9641 11.3372 84.6736 11.4745 84.2721 11.6224C83.8812 11.7598 83.4692 11.8284 83.0361 11.8284C82.0536 11.8284 81.256 11.5062 80.6433 10.8618C80.0305 10.2068 79.7242 9.29827 79.7242 8.1362ZM82.8776 5.45813C82.3811 5.45813 81.9744 5.53737 81.6575 5.69583C81.5307 5.8543 81.4039 6.10784 81.2771 6.45646C81.1609 6.80509 81.0975 7.13787 81.087 7.4548L84.4781 7.35972C84.4781 6.092 83.9446 5.45813 82.8776 5.45813ZM93.1791 5.48983C92.9044 5.48983 92.5769 5.53209 92.1966 5.6166C91.8269 5.69055 91.568 5.75922 91.4201 5.8226V10.8459L92.8305 11.353L92.7354 11.7017H89.0273L88.9322 11.353L89.6453 11.052C89.8355 10.978 89.9623 10.8988 90.0256 10.8143C90.0996 10.7297 90.1366 10.6083 90.1366 10.4498V5.71168L89.0273 5.53737L88.9322 5.18874L90.9764 4.44396L91.2934 4.57073L91.3568 5.15705L91.4201 5.18874C91.568 5.07254 91.8691 4.92992 92.3234 4.76089C92.7882 4.58129 93.1316 4.47565 93.3534 4.44396C93.5753 4.50734 93.813 4.64468 94.0665 4.85597C94.32 5.05669 94.4944 5.24685 94.5894 5.42644L93.5594 6.80509L93.1791 6.69416V5.48983Z" fill="#725C4B"/>
</svg>
