<svg width="33" height="33" viewBox="0 0 33 33" fill="none" xmlns="http://www.w3.org/2000/svg">
<circle cx="16.5" cy="16.5" r="16.5" fill="#725C4B"/>
<g clip-path="url(#clip0_375_3170)">
<path d="M16.5 24.8917C21.3324 24.8917 25.25 20.8435 25.25 15.85C25.25 10.8564 21.3324 6.80835 16.5 6.80835C11.6675 6.80835 7.75 10.8564 7.75 15.85C7.75 17.4969 8.1761 19.0409 8.92059 20.3709L8.1875 24.4396L12.125 23.6821C13.412 24.4514 14.9063 24.8917 16.5 24.8917Z" stroke="white" stroke-width="1.5" stroke-linecap="round" stroke-linejoin="round"/>
<path d="M19 17.7216L18.2012 18.95C16.7113 18.7088 13.8562 16.3052 14.201 15.3333L15.2012 14.3L13.701 12.75C13.3594 12.75 12.2032 13.2667 12.2031 13.7826C12.3305 14.6605 13.047 16.5786 14.1448 17.7216C15.2977 18.9219 18.0266 20.5818 19 20.5C19.3529 20.58 20.5 19.326 20.5 18.95L19 17.7216Z" fill="white" stroke="white" stroke-linecap="round" stroke-linejoin="round"/>
</g>
<defs>
<clipPath id="clip0_375_3170">
<rect width="21" height="21.7" fill="white" transform="translate(6 5)"/>
</clipPath>
</defs>
</svg>
